<svg width="615" height="129" viewBox="0 0 615 129" fill="none" xmlns="http://www.w3.org/2000/svg">
<path d="M76.75 38.8125L83.1875 26H57.5625L51.1875 38.8125H76.75ZM6.375 102.75L0 90L44.75 0.4375H96L108.75 26L96 51.625H83.1875L76.75 64.4375H38.375L19.1875 102.75H6.375ZM96 102.75L89.625 90L121.625 26H134.375L140.812 38.8125L147.188 26H160L166.375 38.8125L160 51.625H147.188L140.812 64.4375H128L108.812 102.75H96ZM211.188 77.25L224 51.625H198.375L185.625 77.25H211.188ZM172.812 102.75L160 77.25L179.188 38.8125H192L198.375 26H236.812L249.625 51.625L230.375 90H217.625L211.188 102.75H172.812ZM249.625 102.75L243.25 90L249.625 77.25H275.25L262.438 51.625L268.812 38.8125H281.625L288 26H339.25L345.625 38.8125L339.25 51.625H313.625L326.438 77.25L320 90H307.25L300.812 102.75H249.625ZM390.438 77.25L403.25 51.625H377.625L364.875 77.25H390.438ZM326.5 128.375L320.125 115.562L364.875 26H416.062L428.875 51.625L409.625 90H396.875L390.438 102.75H352.062L339.25 128.375H326.5ZM441.688 102.75L428.875 77.25L448.062 38.8125H460.875L467.25 26H505.688L518.5 51.625L505.688 77.25H480.062L486.5 90L480.062 102.75H441.688ZM531.312 102.75L518.5 77.25L537.688 38.8125H550.5L556.875 26H595.312L601.688 38.8125L595.312 51.625H556.875L544.125 77.25H569.688L576.125 90L569.688 102.75H531.312ZM595.25 102.75L588.875 90L595.25 77.25H608.062L614.438 90L608.062 102.75H595.25Z" fill="url(#paint0_linear_64_28)"/>
<defs>
<linearGradient id="paint0_linear_64_28" x1="649" y1="-28.6892" x2="625.679" y2="167.137" gradientUnits="userSpaceOnUse">
<stop stop-color="#C87AFF"/>
<stop offset="1" stop-color="#00CFBE"/>
</linearGradient>
</defs>
</svg>
